<svg class="logo-svg" width="70%" viewBox="0 0 915 205" fill="none"
    xmlns="http://www.w3.org/2000/svg" style="margin: 0; top:50%; vertical-align:middle;">
    <path d="M310.694 104.469V162.202H282.483V108.801C282.483 92.1395 274.573 85.3915 264.109 85.3915C248.748 85.3915 243.181 98.7625 243.181 128.837V162.161H214.971V62.0232H243.181V75.1861C246.178 70.185 250.492 66.0942 255.656 63.3558C260.82 60.6175 266.637 59.3357 272.48 59.649C299.351 59.649 310.778 75.9775 310.778 104.469H310.694Z" fill="white"></path>
    <path d="M421.4 109.76C421.46 113.703 421.209 117.644 420.646 121.548H353.301C355.477 132.545 365.858 140.792 381.553 140.792C395.952 140.792 404.616 135.127 416.084 128.296V152.872C407.713 160.328 395.156 164.452 377.577 164.452C344.846 164.452 323.165 143.625 323.165 112.009C323.165 83.1008 343.883 59.5243 374.48 59.5243C402.9 59.5243 421.232 78.2272 421.232 109.51L421.4 109.76ZM353.134 102.304H392.812C391.389 90.8902 385.488 83.4341 374.857 83.4341C369.474 83.1235 364.184 84.9257 360.123 88.4538C356.061 91.9819 353.552 96.9544 353.134 102.304Z" fill="white"></path>
    <path d="M474.304 125.713C474.287 127.862 474.717 129.991 475.565 131.968C476.413 133.944 477.662 135.725 479.234 137.199C480.805 138.673 482.665 139.808 484.698 140.534C486.73 141.26 488.891 141.56 491.046 141.417C496.584 141.408 502.054 140.2 507.076 137.876V161.078C500.196 163.404 492.995 164.654 485.73 164.785C463.212 164.785 446.051 151.247 446.051 124.922V85.8083H427.677V62.2319H446.051V36.4893H474.262V62.2319H507.076V85.8083H474.262V125.713H474.304Z" fill="white"></path>
    <path d="M617.577 162.202H589.325V152.996C585.806 156.659 581.576 159.574 576.893 161.564C572.21 163.555 567.17 164.579 562.077 164.576C532.276 164.576 513.692 141.416 513.692 112.133C513.692 82.8503 532.276 59.6488 562.077 59.6488C567.173 59.6513 572.215 60.6824 576.898 62.68C581.582 64.6776 585.809 67.5999 589.325 71.2703V21.285H617.535V162.202H617.577ZM589.534 112.217C589.534 96.6796 579.112 85.4745 566.053 85.4745C552.995 85.4745 542.363 96.6796 542.363 112.217C542.363 127.754 553.036 138.917 566.053 138.917C579.07 138.917 589.534 127.92 589.534 112.217Z" fill="white"></path>
    <path d="M729.122 109.76C729.213 113.705 728.947 117.65 728.327 121.548H661.024C663.2 132.545 673.58 140.792 689.234 140.792C703.674 140.792 712.338 135.127 723.807 128.296V152.872C715.436 160.328 702.879 164.452 685.3 164.452C652.527 164.452 630.888 143.625 630.888 112.009C630.888 83.1008 651.606 59.5243 682.202 59.5243C710.664 59.5243 728.997 78.2272 728.997 109.51L729.122 109.76ZM660.814 102.304H700.493C699.112 90.8902 693.21 83.4341 682.537 83.4341C677.16 83.145 671.882 84.9549 667.826 88.4788C663.769 92.0027 661.253 96.9625 660.814 102.304V102.304Z" fill="white"></path>
    <path d="M841.543 162.203H813.333V152.206C809.949 156.101 805.767 159.232 801.067 161.387C796.368 163.543 791.26 164.673 786.085 164.702C756.284 164.702 737.742 141.542 737.742 112.259C737.742 82.9759 756.284 59.7745 786.085 59.7745C791.261 59.7955 796.372 60.922 801.072 63.0778C805.773 65.2336 809.954 68.3686 813.333 72.2708V62.2321H841.543V162.411V162.203ZM813.5 112.217C813.5 96.6803 803.036 85.4752 790.019 85.4752C777.002 85.4752 766.329 96.6803 766.329 112.217C766.329 127.755 777.002 138.918 790.019 138.918C803.036 138.918 813.5 127.921 813.5 112.217Z" fill="white"></path>
    <path d="M889.552 127.462C889.322 129.092 889.462 130.753 889.962 132.322C890.463 133.891 891.311 135.328 892.443 136.527C893.576 137.726 894.965 138.657 896.508 139.251C898.05 139.845 899.707 140.087 901.356 139.959C906.123 139.882 910.802 138.668 915.001 136.418V161.411C908.816 163.695 902.26 164.825 895.663 164.743C873.145 164.743 861.133 150.997 861.133 128.795V21.285H889.552V127.462Z" fill="white"></path>
    <path d="M60.3965 0V42.6124C76.3038 42.6124 91.5597 48.9013 102.808 60.0955C114.056 71.2897 120.375 86.4724 120.375 102.303C120.375 118.134 114.056 133.317 102.808 144.511C91.5597 155.705 76.3038 161.994 60.3965 161.994V204.565C87.2952 204.025 112.909 193.011 131.74 173.888C150.572 154.765 161.119 129.058 161.119 102.283C161.119 75.5075 150.572 49.7996 131.74 30.6767C112.909 11.5538 87.2952 0.540249 60.3965 0V0Z" fill="white"></path>
    <path d="M30.1777 72.2292C36.1563 72.2209 42.0031 73.9777 46.9782 77.2773C51.9533 80.5769 55.833 85.271 58.1267 90.7657C60.4204 96.2604 61.0248 102.309 59.8635 108.145C58.7022 113.982 55.8274 119.345 51.6028 123.555C47.3781 127.765 41.9937 130.633 36.1305 131.797C30.2674 132.961 24.189 132.368 18.6646 130.093C13.1403 127.818 8.41818 123.963 5.09576 119.016C1.77333 114.07 5.73454e-06 108.254 0 102.304C0.0110401 94.338 3.19258 86.7011 8.84841 81.0646C14.5042 75.4281 22.1736 72.2512 30.1777 72.2292" fill="white"></path>
</svg>
